<svg viewBox="0 0 40 40" fill="none" xmlns="http://www.w3.org/2000/svg">
  <rect width="40" height="40" rx="10" fill="url(#fg)"/>
  <path d="M20 6c-1.5 4-2.5 8-2.5 14h5c0-6-1-10-2.5-14z" fill="#fff"/>
  <ellipse cx="20" cy="7" rx="2.2" ry="2.8" fill="#fff"/>
  <circle cx="20" cy="13" r="2" fill="#1e3a5f"/>
  <circle cx="20" cy="13" r="1.2" fill="#87CEEB"/>
  <path d="M17.5 20c-2 1-4 4-5 6l5-2v-4z" fill="#fff" fill-opacity=".85"/>
  <path d="M22.5 20c2 1 4 4 5 6l-5-2v-4z" fill="#fff" fill-opacity=".85"/>
  <rect x="17.5" y="20" width="5" height="4" rx=".5" fill="#fff" fill-opacity=".9"/>
  <ellipse cx="20" cy="27" rx="2.5" ry="3.5" fill="#FF6B35" fill-opacity=".9"/>
  <ellipse cx="20" cy="27" rx="1.5" ry="2.5" fill="#FFD700" fill-opacity=".95"/>
  <circle cx="8" cy="10" r=".8" fill="#fff" fill-opacity=".6"/>
  <circle cx="33" cy="8" r=".6" fill="#fff" fill-opacity=".5"/>
  <circle cx="35" cy="22" r=".7" fill="#fff" fill-opacity=".5"/>
  <defs>
    <linearGradient id="fg" x1="0" y1="0" x2="40" y2="40" gradientUnits="userSpaceOnUse">
      <stop stop-color="#1e3a5f"/>
      <stop offset=".5" stop-color="#b8860b"/>
      <stop offset="1" stop-color="#d4a017"/>
    </linearGradient>
  </defs>
</svg>
